<svg viewBox="0 0 40 37.333" xmlns="http://www.w3.org/2000/svg"><defs><clipPath id="a"><path d="M30 26.972v-.008-.032a3.305 3.305 0 00-.595-1.797C22.878 15.578 20.54 12.5 13.655 1.4 13.16.6 12.28.084 11.304.01a3.087 3.087 0 00-2.557 1.016L.702 10.14c-1.068 1.21-.899 3.013.38 4.024 1.278 1.012 3.18.851 4.249-.36l5.343-6.054c7.258 9.306 14.256 16.944 16.109 18.939.415.447.9.839 1.467 1.087 1.283.56 1.748-.011 1.75-.803z" clip-rule="evenodd"/></clipPath><clipPath id="b"><path d="M-1594-735H326V926h-1920z"/></clipPath><clipPath id="c"><path d="M-5-5h40v38H-5z"/></clipPath><clipPath id="d"><path d="M0 0h30v28H0z"/></clipPath></defs><g clip-path="url(#a)" transform="matrix(1.3333 0 0 -1.3333 0 37.333)"><g clip-path="url(#b)"><g clip-path="url(#c)"><g clip-path="url(#d)"><path d="M-10 38h50v-48h-50z" fill="#4cac2b"/></g></g></g></g></svg>